# xmcd CD database file
#
# Track frame offsets:
#	150
#	17585
#	42475
#	62767
#	84395
#	97177
#	117670
#	138925
#	158670
#	159405
#	175670
#	181845
#	207282
#	216062
#	230505
#	251147
#	255217
#	290707
#
# Disc length: 4208 seconds
#
# Revision: 0
# Processed by: cddbd v1.5.1PL0 Copyright (c) Steve Scherf et al.
# Submitted via: CDex 1.51
#
DISCID=f9106e12
DTITLE=Melissa Vardey - Living In Devine Time
DYEAR=2000
DGENRE=Rhythmic Soul
TTITLE0=Listen To The Wind
TTITLE1=Hunter Dance
TTITLE2=Living In Devine Time
TTITLE3=Keep On Holdin On
TTITLE4=A We Ye Po
TTITLE5=Bloa-Deh
TTITLE6=Dancing On Sacred Ground
TTITLE7=The Contented Life
TTITLE8=Chaka Intro
TTITLE9=It All Begins With Love
TTITLE10=Coming Home
TTITLE11=Happiness
TTITLE12=Le Voyage
TTITLE13=Far Far Away
TTITLE14=Be One
TTITLE15=Ya Kuma
TTITLE16=Euphrates
TTITLE17=Momboy Mystique
EXTD=YEAR: 2000
EXTT0=
EXTT1=
EXTT2=
EXTT3=
EXTT4=
EXTT5=
EXTT6=
EXTT7=
EXTT8=
EXTT9=
EXTT10=
EXTT11=
EXTT12=
EXTT13=
EXTT14=
EXTT15=
EXTT16=
EXTT17=
PLAYORDER=
